<svg width="70" height="53" viewBox="0 0 70 53" fill="none" xmlns="http://www.w3.org/2000/svg">
<path d="M57.75 21.8747C57.75 33.9563 47.9561 43.75 35.8748 43.75C23.7939 43.75 14 33.9563 14 21.8747C14 9.79369 23.7939 0 35.8748 0C47.9561 0 57.75 9.79369 57.75 21.8747Z" fill="#333333"/>
<path d="M44.9387 18.3336H53.1C53.7306 18.3336 54.2475 18.8498 54.2475 19.4814V19.7763C54.2475 20.4069 53.731 20.9235 53.1 20.9235H44.9387C44.3077 20.9235 43.7911 20.4073 43.7911 19.7763V19.4814C43.7911 18.8498 44.3077 18.3336 44.9387 18.3336Z" fill="#333333"/>
<path d="M41.354 13.2969H51.6189C52.2502 13.2969 52.7667 13.8131 52.7667 14.4441V14.7389C52.7667 15.3703 52.2505 15.8868 51.6189 15.8868H41.354C40.7227 15.8868 40.2062 15.3706 40.2062 14.7389V14.4441C40.2062 13.8135 40.7227 13.2969 41.354 13.2969Z" fill="#333333"/>
<path d="M37.7535 18.3336H41.543C42.1747 18.3336 42.6912 18.8498 42.6912 19.4814V19.7763C42.6912 20.4069 42.175 20.9235 41.543 20.9235H37.7535C37.1225 20.9235 36.606 20.4073 36.606 19.7763V19.4814C36.6063 18.8498 37.1225 18.3336 37.7535 18.3336Z" fill="#333333"/>
<path d="M45.8348 16.9948V17.2896C45.8348 17.9209 45.3185 18.4375 44.6869 18.4375H48.1434C47.512 18.4375 46.9955 17.9212 46.9955 17.2896V16.9948C46.9955 16.3634 47.5117 15.8469 48.1434 15.8469H44.6869C45.3185 15.8469 45.8348 16.3634 45.8348 16.9948Z" fill="#333333"/>
<path d="M28.3229 11.5688H33.8693C34.2982 11.5688 34.6492 11.9198 34.6492 12.3484V12.5495C34.6492 12.9787 34.2982 13.3297 33.8693 13.3297H28.3229C27.8937 13.3297 27.543 12.9787 27.543 12.5495V12.3484C27.543 11.9198 27.8937 11.5688 28.3229 11.5688Z" fill="#333333"/>
<path d="M25.887 8.14584H32.8629C33.2921 8.14584 33.6428 8.49688 33.6428 8.9261V9.12582C33.6428 9.55505 33.2921 9.90608 32.8629 9.90608H25.887C25.4577 9.90608 25.1071 9.55505 25.1071 9.12582V8.9261C25.1071 8.49688 25.4577 8.14584 25.887 8.14584Z" fill="#333333"/>
<path d="M23.4398 11.5688H26.0155C26.4447 11.5688 26.7954 11.9198 26.7954 12.3484V12.5495C26.7954 12.9787 26.4447 13.3297 26.0155 13.3297H23.4398C23.0109 13.3297 22.6599 12.9787 22.6599 12.5495V12.3484C22.6599 11.9198 23.0113 11.5688 23.4398 11.5688Z" fill="#333333"/>
<path d="M28.932 10.6589V10.8593C28.932 11.2885 28.5806 11.6396 28.1517 11.6396H30.5006C30.0714 11.6396 29.721 11.2885 29.721 10.8593V10.6589C29.721 10.2297 30.0714 9.87865 30.5006 9.87865H28.1517C28.5806 9.87899 28.932 10.23 28.932 10.6589Z" fill="#333333"/>
<path d="M24.4939 29.1289H31.8097C32.4319 29.1289 32.9403 29.6373 32.9403 30.2588V30.3705C32.9403 30.992 32.4319 31.5011 31.8097 31.5011H24.4939C23.8724 31.5011 23.364 30.992 23.364 30.3705V30.2588C23.3644 29.6373 23.8724 29.1289 24.4939 29.1289Z" fill="#333333"/>
<path d="M22.1277 24.516H31.3709C31.992 24.516 32.5008 25.0245 32.5008 25.646V25.7577C32.5008 26.3792 31.992 26.8883 31.3709 26.8883H22.1277C21.5058 26.8883 20.9971 26.3792 20.9971 25.7577V25.646C20.9971 25.0245 21.5058 24.516 22.1277 24.516Z" fill="#333333"/>
<path d="M18.2172 29.1289H21.5301C22.1516 29.1289 22.6601 29.6373 22.6601 30.2588V30.3705C22.6601 30.992 22.1516 31.5011 21.5301 31.5011H18.2172C17.5953 31.5011 17.0869 30.992 17.0869 30.3705V30.2588C17.0873 29.6373 17.5957 29.1289 18.2172 29.1289Z" fill="#333333"/>
<path d="M25.1392 27.9024V28.1729C25.1392 28.7507 24.6666 29.2236 24.0885 29.2236H27.2542C26.676 29.2236 26.2031 28.7511 26.2031 28.1729V27.9024C26.2031 27.3246 26.676 26.8514 27.2542 26.8514H24.0881C24.6666 26.851 25.1392 27.3246 25.1392 27.9024Z" fill="#333333"/>
<path d="M41.8999 33.518H47.446C47.8752 33.518 48.2262 33.869 48.2262 34.2982V34.498C48.2262 34.9272 47.8752 35.2782 47.446 35.2782H41.8999C41.4711 35.2782 41.1204 34.9272 41.1204 34.498V34.2982C41.1207 33.8693 41.4714 33.518 41.8999 33.518Z" fill="#333333"/>
<path d="M39.4642 30.0946H46.4398C46.869 30.0946 47.22 30.4463 47.22 30.8749V31.0753C47.22 31.5045 46.869 31.8555 46.4398 31.8555H39.4642C39.035 31.8555 38.684 31.5045 38.684 31.0753V30.8749C38.684 30.4463 39.035 30.0946 39.4642 30.0946Z" fill="#333333"/>
<path d="M37.0176 33.518H39.5929C40.0218 33.518 40.3732 33.869 40.3732 34.2982V34.498C40.3732 34.9272 40.0218 35.2782 39.5929 35.2782H37.0176C36.5883 35.2782 36.2373 34.9272 36.2373 34.498V34.2982C36.2373 33.8693 36.5883 33.518 37.0176 33.518Z" fill="#333333"/>
<path d="M42.5091 32.6084V32.8088C42.5091 33.2373 42.1581 33.5884 41.7289 33.5884H44.0784C43.6492 33.5884 43.2982 33.2373 43.2982 32.8088V32.6084C43.2982 32.1795 43.6492 31.8281 44.0784 31.8281H41.7289C42.1581 31.8281 42.5091 32.1792 42.5091 32.6084Z" fill="#333333"/>
<path d="M44.7747 27.2021H25.3378V32.9879H44.7747V27.2021Z" fill="#ADEBF6"/>
<path d="M44.7747 30.0946H25.3378V32.9879H44.7747V30.0946Z" fill="#ADEBF6"/>
<path d="M42.2295 27.2021H41.5031V32.9879H42.2295V27.2021Z" fill="#333333"/>
<path d="M38.7675 27.2021H38.0417V32.9879H38.7675V27.2021Z" fill="#333333"/>
<path d="M27.3904 27.2021H26.6639V32.9879H27.3904V27.2021Z" fill="#333333"/>
<path fill-rule="evenodd" clip-rule="evenodd" d="M40.0754 29.1221C39.7677 29.1221 39.5186 28.8723 39.5186 28.5649C39.5186 28.2576 39.7674 28.0081 40.0754 28.0081C40.3828 28.0081 40.6322 28.2572 40.6322 28.5649C40.6322 28.8726 40.3828 29.1221 40.0754 29.1221Z" fill="#333333"/>
<g opacity="0.6">
<path fill-rule="evenodd" clip-rule="evenodd" d="M40.0754 30.6522C39.7677 30.6522 39.5186 30.4031 39.5186 30.095C39.5186 29.7877 39.7674 29.5382 40.0754 29.5382C40.3828 29.5382 40.6322 29.7873 40.6322 30.095C40.6319 30.4027 40.3828 30.6522 40.0754 30.6522Z" fill="#333333"/>
</g>
<g opacity="0.2">
<path fill-rule="evenodd" clip-rule="evenodd" d="M40.0754 32.1819C39.7677 32.1819 39.5186 31.9328 39.5186 31.6251C39.5186 31.3177 39.7674 31.0682 40.0754 31.0682C40.3828 31.0682 40.6322 31.3174 40.6322 31.6251C40.6319 31.9328 40.3828 32.1819 40.0754 32.1819Z" fill="#333333"/>
</g>
<path d="M26.3277 38.3228L26.3173 42.5145L47.7483 42.5602L47.7587 38.3685L26.3277 38.3228Z" fill="#ADEBF6"/>
<path fill-rule="evenodd" clip-rule="evenodd" d="M47.7477 42.5625L47.7514 40.8554L26.3207 40.7312L26.3167 42.5144L47.7477 42.5625Z" fill="#ADEBF6"/>
<path d="M44.7856 38.365L44.7751 42.5571L45.401 42.5584L45.4115 38.3663L44.7856 38.365Z" fill="#333333"/>
<path d="M42.6197 38.3569L42.6093 42.5487L43.2352 42.55L43.2456 38.3583L42.6197 38.3569Z" fill="#333333"/>
<path d="M40.5304 39.916L39.9883 40.4558L40.5281 40.9979L41.0702 40.4581L40.5304 39.916Z" fill="#333333"/>
<path d="M39.2406 39.8974L38.6982 40.4371L39.2381 40.9796L39.7804 40.44L39.2406 39.8974Z" fill="#333333"/>
<path d="M23.7802 22.9907L23.7743 27.1824L45.2053 27.2082L45.2112 23.0165L23.7802 22.9907Z" fill="#FF916E"/>
<path fill-rule="evenodd" clip-rule="evenodd" d="M45.2042 27.2082L45.207 25.4997L23.7756 25.3985L23.7732 27.1818L45.2042 27.2082Z" fill="#FF916E"/>
<path d="M42.2382 23.0129L42.2328 27.205L42.8587 27.2057L42.8641 23.0136L42.2382 23.0129Z" fill="white"/>
<path d="M40.0721 23.0076L40.0667 27.1994L40.6922 27.2001L40.6976 23.0083L40.0721 23.0076Z" fill="white"/>
<path d="M37.9849 24.5717L37.4429 25.1121L37.9832 25.6541L38.5252 25.1137L37.9849 24.5717Z" fill="#333333"/>
<path d="M36.6906 24.5529L36.1488 25.093L36.6889 25.6348L37.2307 25.0947L36.6906 24.5529Z" fill="#333333"/>
<path fill-rule="evenodd" clip-rule="evenodd" d="M41.4987 33.0129V38.3535H26.1232C24.7025 38.2906 23.5698 37.118 23.5698 35.681C23.5698 34.264 24.67 33.1053 26.0629 33.0126L41.4987 33.0129Z" fill="#FF916E"/>
<path fill-rule="evenodd" clip-rule="evenodd" d="M41.4988 33.3998V37.9676H26.4787C25.1585 37.9676 24.0885 36.9443 24.0885 35.682C24.0885 34.4617 25.0878 33.4651 26.346 33.3998H41.4988Z" fill="white"/>
<path fill-rule="evenodd" clip-rule="evenodd" d="M37.0941 37.9676L37.1107 34.9045L36.4824 34.9072V37.9676H37.0941Z" fill="#B2B2B2"/>
<path fill-rule="evenodd" clip-rule="evenodd" d="M34.4982 34.917L36.4933 34.9045L36.5268 40.2519L35.5215 39.4056L34.532 40.2644L34.4982 34.917Z" fill="#FF916E"/>
<g opacity="0.5">
<path d="M36.5136 38.023L34.5184 38.035L34.5241 38.972L36.5192 38.96L36.5136 38.023Z" fill="#FF916E"/>
</g>
<path d="M42.108 8.19492C42.108 4.75231 39.3173 1.96165 35.8747 1.96165C32.4321 1.96165 29.6418 4.75231 29.6418 8.19492C29.6418 12.2861 35.8747 22.6113 35.8747 22.6113C35.8747 22.6113 42.108 12.6581 42.108 8.19492Z" fill="#FF916E"/>
<path d="M39.7614 8.01754C39.6889 5.87817 37.8976 4.20087 35.7576 4.26553C35.7521 4.2662 35.7481 4.2662 35.7433 4.2662C33.5962 4.33898 31.9148 6.13645 31.9876 8.28123C32.0604 10.426 33.8592 12.106 36.006 12.0332C36.0108 12.0326 36.0152 12.0326 36.0202 12.0319C38.1603 11.9523 39.8342 10.1579 39.7614 8.01754Z" fill="white"/>
<path d="M39.4594 6.61816L39.2569 6.62865L39.1513 6.521L39.1256 6.34193L39.0234 6.40219L38.9746 6.62357L38.8193 6.4682L38.8077 6.31756L38.6585 6.19739L38.6029 6.14662L38.4347 6.15203L38.4933 6.30064L38.6994 6.40625L38.7356 6.44247L38.6927 6.46549L38.6987 6.58431L38.6013 6.62865L38.5163 6.61342L38.4615 6.53996L38.5985 6.54267L38.6341 6.49189L38.323 6.29759L38.2973 6.21093L38.1774 6.3267L38.0515 6.30504L37.8694 6.5596L37.8352 6.65742L37.7137 6.67266L37.5336 6.67943L37.4246 6.63305L37.3857 6.41945L37.4209 6.31621L37.603 6.26983L37.8044 6.30301L37.8251 6.19198L37.7394 6.17471L37.7624 6.0014L37.9628 5.96315L38.0969 5.75936L38.2414 5.73025L38.3734 5.74481L38.4218 5.74345L38.389 5.55761L38.2316 5.62701L38.1707 5.48957L38.0776 5.48043L38.0573 5.38531L38.1301 5.30001L38.3071 5.22385L38.3504 5.1399C37.6463 4.56071 36.7381 4.22356 35.7578 4.25402C35.7548 4.2547 35.7521 4.2547 35.7494 4.2547C34.8953 4.28381 34.1154 4.58711 33.4888 5.07727L33.6845 5.06949L33.7738 5.11519L33.9394 5.14497L33.9546 5.20895L34.2169 5.20963L34.1787 5.12703L33.9458 5.12839L33.9989 5.0749L33.9776 5.01397L33.7674 5.02108L33.9912 4.84201L34.2109 4.8349L34.3188 4.97369L34.4908 4.97708L34.5907 4.87315L34.6699 4.90937L34.5321 5.05358C34.5321 5.05358 34.3351 5.06339 34.3446 5.06272C34.3544 5.06272 34.3655 5.19812 34.3655 5.19812L34.6042 5.18356L34.6279 5.11755L34.7917 5.10232L34.8083 5.00517L34.7108 4.99197L34.7403 4.90328L34.8141 4.87891L35.073 4.88297L34.9342 5.01736L34.9606 5.11654L35.1099 5.13448L35.094 4.95338L35.2338 4.87417L35.4853 4.83727L35.7805 4.95643L35.8556 4.98622L35.8607 5.12568L35.9785 5.15073L35.924 5.26244L35.791 5.26718L35.7588 5.26853L35.7142 5.39615L35.3343 5.31964L35.6251 5.15242L35.5087 5.06001L35.2545 5.10097L35.2331 5.12534L35.2321 5.12466L35.2277 5.13008L35.1566 5.20929L35.0365 5.22317L35.0476 5.2841L35.091 5.30001L35.0896 5.31998L34.9914 5.33792L34.986 5.39547L34.8916 5.40326L34.8706 5.29019L34.7027 5.34774L34.3628 5.56201L34.4068 5.70351L34.5057 5.76376L34.7007 5.78441L34.7081 6.00444L34.7971 5.98718L34.874 5.81183L35.0781 5.73973L35.0693 5.47434L35.181 5.38362L35.4606 5.43914L35.4467 5.61516L35.5215 5.61245L35.7219 5.50548L35.7395 5.73499L35.8086 5.77392L35.8908 5.8203L35.8892 5.95638L35.8157 5.98346L35.8191 6.07858L35.9338 6.12631V6.22007L35.8844 6.22617C35.8837 6.22413 35.8837 6.22346 35.8837 6.22346L35.8231 6.20687L35.6651 6.16388L35.6539 6.09516L35.7152 6.04947L35.7128 5.98583L35.6448 5.97127L35.6299 6.03017L35.511 6.05251L35.4989 6.04913L35.4992 6.05454L35.4582 6.06233L35.4224 5.99564L35.3828 5.97973L35.2981 5.98312L35.2606 6.01561L35.2633 6.08636L35.3367 6.10837L35.4085 6.11547L35.3929 6.12326L35.3296 6.19807L35.2998 6.16253L35.2362 6.14865L35.0693 6.31587L35.0923 6.33381L34.8428 6.48309L34.6116 6.74036L34.5995 6.85206L34.3645 7.01726L34.2501 7.14081L34.2711 7.37946L34.1035 7.30803L34.1002 7.16857L33.6415 7.18448L33.4083 7.31277L33.3114 7.5064L33.2759 7.65839L33.3477 7.80259L33.5355 7.81918L33.8263 7.60964L33.8561 7.70747L33.7705 7.88282L33.9986 7.91329L34.0331 8.26229L34.3456 8.3046L34.5351 8.07001L34.7762 8.1103L34.8645 8.22471L35.0933 8.20372L35.0974 8.13568L35.2254 8.19255L35.3753 8.41089L35.6211 8.40615L35.7169 8.56153L35.7365 8.75515L35.9132 8.81541L36.0117 8.84926L36.3546 8.84079L36.4602 9.00226L36.6139 9.04593L36.5892 9.18269L36.4297 9.40035L36.3969 9.87053L36.2507 9.99409L36.0273 9.99476L35.9575 10.1264L35.9579 10.1271L36.0212 10.3678L35.9684 10.4399L35.789 10.6867L35.7165 10.8316L35.489 10.9507L35.3377 10.9785L35.3333 11.0431L35.441 11.0702L35.4305 11.1403L35.3384 11.2354L35.3987 11.3061H35.5141L35.5104 11.3948L35.4833 11.4828L35.4758 11.5549L35.6508 11.6924L35.6305 11.7679L35.3987 11.7712L35.1617 11.5776L34.9715 11.2682L34.986 10.9629L34.8445 10.7865L34.8892 10.4778L34.8076 10.4578L34.7826 9.79031C34.7826 9.79031 34.5504 9.62647 34.5375 9.62715C34.5246 9.62715 34.417 9.6021 34.417 9.6021L34.3899 9.47719L34.0836 9.11803L34.1079 8.98432L34.11 8.76734L34.309 8.61806L34.2718 8.3767L33.9739 8.36418L33.7319 8.10691L33.5657 8.06731L33.4587 8.0514L33.4678 7.95424L33.3318 7.93969L33.3334 7.99453L32.9909 7.92175L32.8474 7.71729L32.8995 7.61404L32.6734 7.30736L32.6287 7.0792L32.5417 7.08259L32.5779 7.30397L32.7346 7.52874L32.7214 7.6198L32.5945 7.60457L32.4307 7.34527L32.4205 7.03723L32.2563 6.96513L32.2492 6.74374C32.0651 7.21833 31.9716 7.73692 31.9899 8.27684C32.0627 10.4223 33.8669 12.1081 36.0124 12.0356C36.0151 12.0356 36.0181 12.0356 36.0208 12.0356C37.2334 11.9913 38.2983 11.3942 38.9807 10.4958L38.8524 10.4998L38.844 10.2412L38.6886 10.0462L38.6781 9.73479L38.5606 9.62647L38.5468 9.49682L38.6811 9.21721L38.3921 8.745L38.413 8.41698L38.1663 8.39972L38.0732 8.31238L37.9083 8.3178L37.8268 8.39769L37.536 8.40751L37.5272 8.43391L37.3654 8.43932L36.9795 8.02872L36.9714 7.69867L37.0319 7.67362L37.0509 7.54668L36.9636 7.55007L36.9233 7.41839L37.343 7.09376L37.3352 6.87373L37.5417 6.75017L37.627 6.75627L37.8004 6.74984L37.9337 6.67232L38.369 6.62391L38.3765 6.84665L38.7235 6.92214L38.7932 6.96851L38.8561 6.96648L38.8521 6.84563L39.0501 6.81923L39.2441 6.95328L39.5545 6.94279L39.5755 6.92214C39.5409 6.81889 39.5024 6.71802 39.4594 6.61816ZM37.5847 5.57285L37.6186 5.51733L37.7455 5.48687L37.7828 5.64089L37.8545 5.74853L37.9016 5.79863L37.9852 5.82842L37.9107 5.92286L37.7611 5.94283L37.6477 5.9469L37.6558 5.81217L37.7492 5.78983L37.7391 5.72687L37.6497 5.67474L37.5864 5.63445L37.5847 5.57285ZM37.383 5.82266L37.4568 5.69572L37.5607 5.66797L37.6369 5.69776L37.6328 5.78171L37.4767 5.90086L37.386 5.90357L37.383 5.82266ZM35.3587 6.27559L35.4701 6.27153L35.4911 6.21195L35.5358 6.20924L35.5862 6.2177L35.5662 6.2634L35.5114 6.26983L35.5016 6.32399L35.4599 6.35175L35.3922 6.36021C35.3892 6.34363 35.3868 6.3311 35.3868 6.3311L35.3604 6.33246L35.3587 6.27559ZM35.2047 6.38188L35.2071 6.32569L35.2423 6.27931L35.2917 6.31553L35.2853 6.3724L35.2047 6.38188Z" fill="#ADEBF6"/>
<path d="M52.4365 28.0578C52.4365 27.3642 51.8732 26.8009 51.1807 26.8009C51.8732 26.8009 52.4365 26.2383 52.4365 25.5441C52.4365 26.2383 53.0008 26.8009 53.6934 26.8009C53.0008 26.8009 52.4365 27.3642 52.4365 28.0578Z" fill="white"/>
<path d="M49.9846 25.2506C49.9846 24.7249 49.5577 24.298 49.0327 24.298C49.5581 24.298 49.9846 23.8722 49.9846 23.3462C49.9846 23.8725 50.4125 24.298 50.9371 24.298C50.4125 24.2977 49.9846 24.7249 49.9846 25.2506Z" fill="white"/>
<path d="M24.1892 16.9761C24.1892 16.4498 23.762 16.0236 23.2373 16.0236C23.7623 16.0236 24.1892 15.5971 24.1892 15.071C24.1892 15.5974 24.6167 16.0236 25.1414 16.0236C24.6167 16.0236 24.1892 16.4501 24.1892 16.9761Z" fill="white"/>
<path d="M26.5267 18.2571C26.2745 18.2571 26.069 18.4619 26.069 18.7147C26.069 18.4622 25.8646 18.2571 25.6117 18.2571C25.8646 18.2571 26.069 18.0516 26.069 17.7994C26.0694 18.0512 26.2745 18.2571 26.5267 18.2571Z" fill="white"/>
<path d="M47.6656 7.74063C47.2885 7.74063 46.9814 8.04732 46.9814 8.42408C46.9814 8.04732 46.6758 7.74063 46.2983 7.74063C46.6758 7.74063 46.9814 7.43462 46.9814 7.05753C46.9818 7.43462 47.2885 7.74063 47.6656 7.74063Z" fill="white"/>
<path d="M49.4909 26.736C49.2384 26.736 49.0326 26.9408 49.0326 27.1929C49.0326 26.9411 48.8278 26.736 48.575 26.736C48.8278 26.736 49.0326 26.5305 49.0326 26.2776C49.0329 26.5305 49.2384 26.736 49.4909 26.736Z" fill="white"/>
<path d="M46.9363 10.3515C46.3115 10.3515 45.8044 10.8579 45.8044 11.4815C45.8044 10.8579 45.2983 10.3515 44.6731 10.3515C45.2983 10.3515 45.8044 9.84378 45.8044 9.21957C45.8044 9.84378 46.3115 10.3515 46.9363 10.3515Z" fill="white"/>
<path d="M20.9149 21.3232C20.5655 21.3232 20.2812 21.6069 20.2812 21.9559C20.2812 21.6069 19.9979 21.3232 19.6482 21.3232C19.9979 21.3232 20.2812 21.0389 20.2812 20.6899C20.2812 21.0389 20.5655 21.3232 20.9149 21.3232Z" fill="white"/>
<path d="M20.2817 22.7626C19.3048 22.7626 18.5106 23.556 18.5106 24.532C18.5106 23.556 17.7182 22.7626 16.7406 22.7626C17.7185 22.7626 18.5106 21.9678 18.5106 20.9922C18.5106 21.9678 19.3048 22.7626 20.2817 22.7626Z" fill="white"/>
<path d="M3.60526 52H1.85326V51.52H2.45326V47.98H1.56526V48.676H1.10926V47.5H4.34926V48.676H3.89326V47.98H3.00526V51.52H3.60526V52ZM4.94973 47.5H6.34173V47.98H5.92173V49.51H7.76973V47.98H7.34973V47.5H8.74173V47.98H8.32173V51.52H8.74173V52H7.34973V51.52H7.76973V49.99H5.92173V51.52H6.34173V52H4.94973V51.52H5.36973V47.98H4.94973V47.5ZM9.70168 47.5H12.1017L12.7257 48.16V49.54L12.1017 50.2H10.6737V51.52H11.1537V52H9.70168V51.52H10.1217V47.98H9.70168V47.5ZM11.8617 49.684L12.2097 49.33V48.37L11.8677 48.016H10.6737V49.684H11.8617ZM15.5818 52H13.8298V51.52H14.4298V47.98H13.5418V48.676H13.0858V47.5H16.3258V48.676H15.8698V47.98H14.9818V51.52H15.5818V52ZM21.2319 47.5H22.5639V47.98H22.2039V51.34L21.5799 52H19.9479L19.3239 51.34V47.98H18.9639V47.5H20.2959V47.98H19.8759V51.166L20.1819 51.484H21.3399L21.6519 51.166V47.98H21.2319V47.5ZM26.1894 52L24.4374 48.184V51.52H24.8574V52H23.4654V51.52H23.8854V47.98H23.4654V47.5H24.7134L26.4654 51.322V47.98H26.0454V47.5H27.4374V47.98H27.0174V52H26.1894ZM29.1925 51.484H30.2905L30.6745 51.094V50.17H29.8465V49.69H31.1545V51.34L30.5305 52H28.9585L28.3345 51.34V48.16L28.9585 47.5H30.5305L31.1545 48.16V48.916H30.6745V48.406L30.2965 48.016H29.1985L28.8865 48.334V51.166L29.1925 51.484ZM35.3529 52L34.0989 47.98H33.7929V47.5H35.0649V47.98H34.6509L35.7309 51.454L36.8169 47.98H36.4029V47.5H37.6749V47.98H37.3689L36.1149 52H35.3529ZM38.6632 47.5H40.2652V47.98H39.9892L41.0452 51.52H41.3452V52H40.0732V51.52H40.4932L40.2172 50.596H38.7112L38.4352 51.52H38.8552V52H37.5832V51.52H37.8832L38.9392 47.98H38.6632V47.5ZM39.4612 48.07L38.8552 50.116H40.0732L39.4612 48.07ZM44.6405 52L42.8885 48.184V51.52H43.3085V52H41.9165V51.52H42.3365V47.98H41.9165V47.5H43.1645L44.9165 51.322V47.98H44.4965V47.5H45.8885V47.98H45.4685V52H44.6405ZM52.2973 52H51.0253V51.52H51.3733L50.4013 49.99H49.8553V51.52H50.2753V52H48.8833V51.52H49.3033V47.98H48.8833V47.5H50.2753V47.98H49.8553V49.51H50.3593L51.3193 47.98H50.9653V47.5H52.2373V47.98H51.9373L50.8453 49.714L51.9913 51.52H52.2973V52ZM52.897 47.5H54.289V47.98H53.869V49.51H55.717V47.98H55.297V47.5H56.689V47.98H56.269V51.52H56.689V52H55.297V51.52H55.717V49.99H53.869V51.52H54.289V52H52.897V51.52H53.317V47.98H52.897V47.5ZM57.5889 51.52H58.0689V47.98H57.5889V47.5H59.1009V47.98H58.6209V51.52H59.1009V52H57.5889V51.52ZM59.9986 47.5H62.8546V48.676H62.3746V47.98H60.9706V49.51H62.3746V49.99H60.9706V51.52H62.3746V50.824H62.8546V52H59.9986V51.52H60.4186V47.98H59.9986V47.5ZM63.813 47.5H65.037L66.171 50.836L67.305 47.5H68.529V47.98H68.109V51.52H68.529V52H67.137V51.52H67.557V48.298L66.435 51.52H65.907L64.785 48.298V51.52H65.205V52H63.813V51.52H64.233V47.98H63.813V47.5Z" fill="white"/>
</svg>
